<svg width="141" height="40" viewBox="0 0 141 40" fill="none" xmlns="http://www.w3.org/2000/svg">
<g clip-path="url(#clip0_684_2772)">
<path d="M0 39.535V0H28.6551V6.88212H9.15037V16.2846H26.7472V23.1667H9.15037V39.535H0Z" fill="#9529CE"/>
<path d="M130.624 15.8195L140.404 0.362671H131.013L125.938 8.38871L130.624 15.8195Z" fill="#9529CE"/>
<path d="M130.624 24.2734L125.873 31.7415L131.097 40L140.488 39.8698L130.624 24.2734Z" fill="#9529CE"/>
<path d="M115.417 39.8698L127.947 20.0511L115.491 0.362671H106.025L118.556 20.1162L106.025 39.8698H115.417Z" fill="#FF4476"/>
<path d="M96.8758 33.0434H79.0937V23.6131H96.8758V16.7216H79.0937V7.30988H96.8758V0.418457H69.9434V39.9348H96.8758V33.0434Z" fill="#9529CE"/>
<path d="M60.8385 32.625H46.9092V0H37.7588V39.5164H60.8385V32.625Z" fill="#9529CE"/>
</g>
<defs>
<clipPath id="clip0_684_2772">
<rect width="140.488" height="40" fill="white"/>
</clipPath>
</defs>
</svg>
